<?xml version="1.0" encoding="UTF-8"?>
<svg id="Layer_2" data-name="Layer 2" xmlns="http://www.w3.org/2000/svg" viewBox="0 0 400 400">
  <defs>
    <style>
      .cls-1 {
        fill: #02efff;
      }
    </style>
  </defs>
  <path class="cls-1" d="M190.88,138.44s-3.19-49.32-42.91-53.97c-36.35-4.25-42.27,26.77-43.05,32.45-.07.53-.47.96-.99,1.08-45.73,10.11-31.76,48.43-31.76,48.43,11.42,34.7,68.25,29.72,82.64,27.93,10.96-1.36,20.4-5.86,24.45-8.81,2-1.46,3.7-4.41,4.96-6.54,8.16-13.69,6.66-40.57,6.66-40.57ZM171.48,173.81c-3.59,4.48-18.31-1.37-32.89-13.06-14.58-11.69-23.49-24.79-19.9-29.26,3.59-4.48,18.31,1.37,32.89,13.06s23.49,24.79,19.9,29.26Z"/>
  <path class="cls-1" d="M292.94,118c-.52-.12-.91-.55-.99-1.08-.77-5.68-6.7-36.7-43.04-32.45-39.72,4.65-42.92,53.97-42.92,53.97,0,0-1.49,26.88,6.66,40.57,1.27,2.13,2.97,5.08,4.97,6.54,4.05,2.95,13.48,7.45,24.44,8.81,14.4,1.79,71.23,6.77,82.64-27.93,0,0,13.98-38.32-31.76-48.43ZM259.95,161.23c-14.21,12.13-28.74,18.43-32.47,14.07-3.72-4.36,4.78-17.73,18.99-29.86,14.21-12.13,28.75-18.43,32.47-14.07,3.73,4.36-4.78,17.72-18.99,29.86Z"/>
  <path class="cls-1" d="M187.34,220.98c-1.26-2.13-2.96-5.08-4.96-6.54-4.05-2.95-13.49-7.45-24.45-8.81-14.39-1.79-71.22-6.77-82.64,27.93,0,0-13.97,38.32,31.76,48.43.52.12.92.55.99,1.08.78,5.68,6.7,36.7,43.05,32.45,39.72-4.65,42.91-53.97,42.91-53.97,0,0,1.5-26.88-6.66-40.57ZM155.29,255.95c-14.21,12.13-28.75,18.43-32.47,14.07-3.73-4.36,4.78-17.73,18.99-29.86,14.21-12.13,28.74-18.43,32.47-14.07,3.72,4.36-4.78,17.73-18.99,29.86Z"/>
  <path class="cls-1" d="M327.82,233.56c-11.41-34.7-68.24-29.72-82.64-27.93-10.96,1.36-20.39,5.86-24.44,8.81-2,1.46-3.7,4.41-4.97,6.54-8.15,13.69-6.66,40.57-6.66,40.57,0,0,3.2,49.32,42.92,53.97,36.35,4.25,42.27-26.77,43.04-32.45.08-.53.47-.96.99-1.08,45.74-10.11,31.76-48.43,31.76-48.43ZM279.61,268.53c-3.59,4.48-18.31-1.37-32.89-13.06-14.58-11.69-23.49-24.79-19.9-29.26,3.58-4.48,18.31,1.37,32.89,13.06,14.57,11.69,23.48,24.79,19.9,29.26Z"/>
  <path class="cls-1" d="M228.33,198.53s-25.25,4.5-29.33,27.87c-4.08-23.36-29.33-27.87-29.33-27.87,27.87-5.03,29.33-29.23,29.33-29.23-.02.53-.02,1.06,0,1.58.02-.52.02-1.04,0-1.58,0,0,1.47,24.2,29.33,29.23Z"/>
</svg>